<?xml version="1.0" standalone="no"?><!DOCTYPE svg PUBLIC "-//W3C//DTD SVG 1.1//EN" "http://www.w3.org/Graphics/SVG/1.1/DTD/svg11.dtd"><svg class="icon" width="200px" height="200.00px" viewBox="0 0 1024 1024" version="1.1" xmlns="http://www.w3.org/2000/svg"><path fill="#333333" d="M73.045333 855.195152a31.030303 31.030303 0 0 1 31.030303-31.030304h558.545455a31.030303 31.030303 0 1 1 0 62.060607h-558.545455a31.030303 31.030303 0 0 1-31.030303-31.030303zM710.376727 230.741333a155.151515 155.151515 0 0 1 198.749091 35.467637l72.300606 88.374303a31.030303 31.030303 0 0 1-8.409212 46.483394L385.706667 742.493091a155.151515 155.151515 0 0 1-184.102788-20.945455l-146.214788-137.060848a62.060606 62.060606 0 0 1 17.997576-102.33794l64.977454-27.834181a31.030303 31.030303 0 0 1 24.451879 0l94.394182 40.463515 57.933576-33.109334-87.195152-78.444606a62.060606 62.060606 0 0 1 17.066667-103.175757L309.061818 252.586667a31.030303 31.030303 0 0 1 22.031515-0.930909l219.353212 73.138424 159.930182-94.083879z m95.045818 42.077091a93.090909 93.090909 0 0 0-63.58109 11.419152l-172.094061 101.220848a31.030303 31.030303 0 0 1-25.537939 2.699637l-221.556364-73.852122-53.123879 22.776243 119.063273 107.178666a31.030303 31.030303 0 0 1-5.368243 49.989819l-108.60606 62.060606a31.030303 31.030303 0 0 1-27.61697 1.582545l-96.380121-41.270303-52.751515 22.590061 146.214788 137.060848a93.090909 93.090909 0 0 0 110.467878 12.567273l555.783758-323.149576-49.245091-60.198788a93.090909 93.090909 0 0 0-55.668364-32.674909z"  /></svg>