<?xml version="1.0" standalone="no"?><!DOCTYPE svg PUBLIC "-//W3C//DTD SVG 1.1//EN" "http://www.w3.org/Graphics/SVG/1.1/DTD/svg11.dtd"><svg class="icon" width="200px" height="200.00px" viewBox="0 0 1024 1024" version="1.1" xmlns="http://www.w3.org/2000/svg"><path fill="#333333" d="M352.318061 855.195152a31.030303 31.030303 0 0 1 31.030303-31.030304h558.545454a31.030303 31.030303 0 1 1 0 62.060607h-558.545454a31.030303 31.030303 0 0 1-31.030303-31.030303zM125.734788 154.220606a62.060606 62.060606 0 0 1 28.982303 2.482424l52.25503 17.408a31.030303 31.030303 0 0 1 17.563152 14.863515l56.071757 105.130667 71.711031 22.403879V215.598545a62.060606 62.060606 0 0 1 81.702787-58.895515l52.224 17.408a31.030303 31.030303 0 0 1 17.128728 14.056728l117.79103 206.134303 176.065939 48.903757a155.151515 155.151515 0 0 1 113.63297 149.47297v138.395151a31.030303 31.030303 0 0 1-39.408485 29.882182L186.368 569.126788a155.151515 155.151515 0 0 1-113.322667-149.410909V215.598545A62.060606 62.060606 0 0 1 125.734788 154.220606zM175.631515 229.096727l-40.494545-13.498182v204.117334a93.090909 93.090909 0 0 0 67.987394 89.677576l645.709575 180.782545V592.678788a93.090909 93.090909 0 0 0-68.173575-89.677576l-188.35394-52.317091a31.030303 31.030303 0 0 1-18.649212-14.522182l-118.225454-206.91006-41.022061-13.653334v143.111758a31.030303 31.030303 0 0 1-40.277333 29.633939l-124.121212-38.787878a31.030303 31.030303 0 0 1-18.121697-15.018667L175.600485 229.096727z"  /></svg>