<?xml version="1.0" standalone="no"?><!DOCTYPE svg PUBLIC "-//W3C//DTD SVG 1.1//EN" "http://www.w3.org/Graphics/SVG/1.1/DTD/svg11.dtd"><svg class="icon" width="200px" height="200.00px" viewBox="0 0 1024 1024" version="1.1" xmlns="http://www.w3.org/2000/svg"><path fill="#333333" d="M507.469576 265.619394a31.030303 31.030303 0 0 1 31.030303 31.030303v620.606061a31.030303 31.030303 0 0 1-62.060606 0v-620.606061a31.030303 31.030303 0 0 1 31.030303-31.030303z"  /><path fill="#333333" d="M507.469576 172.528485a46.545455 46.545455 0 1 0 0 93.090909 46.545455 46.545455 0 0 0 0-93.090909z m-108.606061 46.545454a108.606061 108.606061 0 1 1 217.212121 0 108.606061 108.606061 0 0 1-217.212121 0zM321.287758 451.801212a31.030303 31.030303 0 0 1 31.030303-31.030303h310.30303a31.030303 31.030303 0 1 1 0 62.060606h-310.30303a31.030303 31.030303 0 0 1-31.030303-31.030303zM166.136242 544.892121a31.030303 31.030303 0 0 1 31.030303 31.030303 155.151515 155.151515 0 0 0 155.151516 155.151515 186.181818 186.181818 0 0 1 155.151515 83.254303 186.243879 186.243879 0 0 1 155.151515-83.254303 155.151515 155.151515 0 0 0 155.151515-155.151515 31.030303 31.030303 0 1 1 62.060606 0 217.212121 217.212121 0 0 1-217.212121 217.212121 124.121212 124.121212 0 0 0-124.121212 124.121213 31.030303 31.030303 0 0 1-62.060606 0 124.121212 124.121212 0 0 0-124.121212-124.121213 217.212121 217.212121 0 0 1-217.212122-217.212121 31.030303 31.030303 0 0 1 31.030303-31.030303z"  /></svg>