<?xml version="1.0" standalone="no"?><!DOCTYPE svg PUBLIC "-//W3C//DTD SVG 1.1//EN" "http://www.w3.org/Graphics/SVG/1.1/DTD/svg11.dtd"><svg class="icon" width="200px" height="200.00px" viewBox="0 0 1024 1024" version="1.1" xmlns="http://www.w3.org/2000/svg"><path fill="#333333" d="M507.469576 203.558788a62.060606 62.060606 0 1 0 0 124.121212 62.060606 62.060606 0 0 0 0-124.121212z m-124.121212 62.060606a124.121212 124.121212 0 1 1 248.242424 0 124.121212 124.121212 0 0 1-248.242424 0z"  /><path fill="#333333" d="M507.469576 327.68a31.030303 31.030303 0 0 1 31.030303 31.030303v496.484849a31.030303 31.030303 0 1 1-62.060606 0v-496.484849a31.030303 31.030303 0 0 1 31.030303-31.030303z"  /><path fill="#333333" d="M113.167515 460.862061a31.030303 31.030303 0 0 1 21.938424-9.060849h93.090909a31.030303 31.030303 0 1 1 0 62.060606H167.563636a341.333333 341.333333 0 0 0 679.842909 0h-60.664242a31.030303 31.030303 0 1 1 0-62.060606h93.090909a31.030303 31.030303 0 0 1 31.030303 31.030303 403.393939 403.393939 0 1 1-806.787879 0 31.030303 31.030303 0 0 1 9.091879-21.969454z"  /></svg>