<?xml version="1.0" standalone="no"?><!DOCTYPE svg PUBLIC "-//W3C//DTD SVG 1.1//EN" "http://www.w3.org/Graphics/SVG/1.1/DTD/svg11.dtd"><svg class="icon" width="200px" height="200.00px" viewBox="0 0 1024 1024" version="1.1" xmlns="http://www.w3.org/2000/svg"><path fill="#333333" d="M573.657212 250.166303a31.030303 31.030303 0 0 1 26.903273-15.577212h155.151515a93.090909 93.090909 0 0 1 93.090909 93.090909 31.030303 31.030303 0 0 1-62.060606 0 31.030303 31.030303 0 0 0-31.030303-31.030303h-101.127758l189.998546 325.694061a31.030303 31.030303 0 1 1-53.620364 31.278545l-217.212121-372.363636a31.030303 31.030303 0 0 1-0.093091-31.092364z"  /><path fill="#333333" d="M817.772606 513.861818a124.121212 124.121212 0 1 0 0 248.242424 124.121212 124.121212 0 0 0 0-248.242424z m-186.181818 124.121212a186.181818 186.181818 0 1 1 372.363636 0 186.181818 186.181818 0 0 1-372.363636 0zM197.166545 513.861818a124.121212 124.121212 0 1 0 0 248.242424 124.121212 124.121212 0 0 0 0-248.242424z m-186.181818 124.121212a186.181818 186.181818 0 1 1 372.363637 0 186.181818 186.181818 0 0 1-372.363637 0zM166.136242 265.619394a31.030303 31.030303 0 0 1 31.030303-31.030303h108.606061a31.030303 31.030303 0 0 1 26.810182 15.39103l217.212121 372.363637a31.030303 31.030303 0 1 1-53.620364 31.278545L287.961212 296.649697H197.166545a31.030303 31.030303 0 0 1-31.030303-31.030303z"  /><path fill="#333333" d="M353.124848 371.432727a31.030303 31.030303 0 0 1 25.041455-12.722424h292.553697a31.030303 31.030303 0 1 1 0 62.060606h-276.790303l-171.690667 235.52a31.030303 31.030303 0 1 1-50.144969-36.615757l180.999757-248.242425z"  /></svg>