<?xml version="1.0" standalone="no"?><!DOCTYPE svg PUBLIC "-//W3C//DTD SVG 1.1//EN" "http://www.w3.org/Graphics/SVG/1.1/DTD/svg11.dtd"><svg class="icon" width="200px" height="200.00px" viewBox="0 0 1024 1024" version="1.1" xmlns="http://www.w3.org/2000/svg"><path fill="#333333" d="M128 853.333333h768a42.666667 42.666667 0 0 0 42.666667-42.666666V298.666667a42.666667 42.666667 0 0 0-42.666667-42.666667h-213.333333V128a42.666667 42.666667 0 0 0-42.666667-42.666667H384a42.666667 42.666667 0 0 0-42.666667 42.666667v128H128a42.666667 42.666667 0 0 0-42.666667 42.666667v512a42.666667 42.666667 0 0 0 42.666667 42.666666zM768 341.333333h85.333333v426.666667h-85.333333V341.333333z m-341.333333-170.666666h170.666666v85.333333h-170.666666V170.666667zM341.333333 341.333333h341.333334v426.666667H341.333333V341.333333zM170.666667 341.333333h85.333333v426.666667H170.666667V341.333333z"  /></svg>