<?xml version="1.0" standalone="no"?><!DOCTYPE svg PUBLIC "-//W3C//DTD SVG 1.1//EN" "http://www.w3.org/Graphics/SVG/1.1/DTD/svg11.dtd"><svg class="icon" width="200px" height="200.00px" viewBox="0 0 1024 1024" version="1.1" xmlns="http://www.w3.org/2000/svg"><path fill="#333333" d="M142.863515 296.649697a31.030303 31.030303 0 0 1 31.030303-31.030303h667.151515a31.030303 31.030303 0 1 1 0 62.060606h-667.151515a31.030303 31.030303 0 0 1-31.030303-31.030303zM142.863515 482.831515a31.030303 31.030303 0 0 1 31.030303-31.030303h667.151515a31.030303 31.030303 0 1 1 0 62.060606h-667.151515a31.030303 31.030303 0 0 1-31.030303-31.030303z"  /><path fill="#333333" d="M266.984727 203.558788a62.060606 62.060606 0 0 0-62.060606 62.060606v465.454545h605.090909v-465.454545a62.060606 62.060606 0 0 0-62.060606-62.060606h-480.969697z m-87.753697-25.693091A124.121212 124.121212 0 0 1 266.984727 141.498182h480.969697a124.121212 124.121212 0 0 1 124.121212 124.121212v496.484848a31.030303 31.030303 0 0 1-31.030303 31.030303h-667.151515a31.030303 31.030303 0 0 1-31.030303-31.030303v-496.484848a124.121212 124.121212 0 0 1 36.367515-87.753697z"  /><path fill="#333333" d="M685.893818 731.073939a31.030303 31.030303 0 0 1 31.030303 31.030303v93.09091h93.090909v-93.09091a31.030303 31.030303 0 1 1 62.060606 0v93.09091a62.060606 62.060606 0 0 1-62.060606 62.060606h-93.090909a62.060606 62.060606 0 0 1-62.060606-62.060606v-93.09091a31.030303 31.030303 0 0 1 31.030303-31.030303zM173.893818 731.073939a31.030303 31.030303 0 0 1 31.030303 31.030303v93.09091h93.090909v-93.09091a31.030303 31.030303 0 1 1 62.060606 0v93.09091a62.060606 62.060606 0 0 1-62.060606 62.060606h-93.090909a62.060606 62.060606 0 0 1-62.060606-62.060606v-93.09091a31.030303 31.030303 0 0 1 31.030303-31.030303z"  /><path fill="#333333" d="M336.802909 669.013333a46.545455 46.545455 0 1 0 0-93.090909 46.545455 46.545455 0 0 0 0 93.090909zM678.136242 669.013333a46.545455 46.545455 0 1 0 0-93.090909 46.545455 46.545455 0 0 0 0 93.090909z"  /></svg>