<?xml version="1.0" standalone="no"?><!DOCTYPE svg PUBLIC "-//W3C//DTD SVG 1.1//EN" "http://www.w3.org/Graphics/SVG/1.1/DTD/svg11.dtd"><svg class="icon" width="200px" height="200.00px" viewBox="0 0 1024 1024" version="1.1" xmlns="http://www.w3.org/2000/svg"><path fill="#333333" d="M512 341.333333c-92.501333 0-170.666667 78.165333-170.666667 170.666667s78.165333 170.666667 170.666667 170.666667 170.666667-78.165333 170.666667-170.666667-78.165333-170.666667-170.666667-170.666667z m0 256c-45.44 0-85.333333-39.893333-85.333333-85.333333s39.893333-85.333333 85.333333-85.333333 85.333333 39.893333 85.333333 85.333333-39.893333 85.333333-85.333333 85.333333z"  /><path fill="#333333" d="M128 853.333333h768a42.666667 42.666667 0 0 0 42.666667-42.666666V256a42.666667 42.666667 0 0 0-42.666667-42.666667h-153.002667l-115.498666-115.498666A42.496 42.496 0 0 0 597.333333 85.333333h-170.666666a42.496 42.496 0 0 0-30.165334 12.501334L281.002667 213.333333H128a42.666667 42.666667 0 0 0-42.666667 42.666667v554.666667a42.666667 42.666667 0 0 0 42.666667 42.666666zM170.666667 298.666667h128c11.349333 0 22.186667-4.48 30.165333-12.501334L444.330667 170.666667h135.338666l115.498667 115.498666A42.496 42.496 0 0 0 725.333333 298.666667h128v469.333333H170.666667V298.666667z"  /></svg>