<?xml version="1.0" standalone="no"?><!DOCTYPE svg PUBLIC "-//W3C//DTD SVG 1.1//EN" "http://www.w3.org/Graphics/SVG/1.1/DTD/svg11.dtd"><svg class="icon" width="200px" height="200.00px" viewBox="0 0 1024 1024" version="1.1" xmlns="http://www.w3.org/2000/svg"><path fill="#333333" d="M42.01503 482.831515a31.030303 31.030303 0 0 1 31.030303-31.030303h868.848485a31.030303 31.030303 0 1 1 0 62.060606h-868.848485a31.030303 31.030303 0 0 1-31.030303-31.030303zM724.681697 700.043636a31.030303 31.030303 0 0 1 31.030303 31.030303v93.090909h93.090909v-93.090909a31.030303 31.030303 0 1 1 62.060606 0v93.090909a62.060606 62.060606 0 0 1-62.060606 62.060607h-93.090909a62.060606 62.060606 0 0 1-62.060606-62.060607v-93.090909a31.030303 31.030303 0 0 1 31.030303-31.030303zM135.105939 700.043636a31.030303 31.030303 0 0 1 31.030303 31.030303v93.090909h93.09091v-93.090909a31.030303 31.030303 0 1 1 62.060606 0v93.090909a62.060606 62.060606 0 0 1-62.060606 62.060607h-93.09091a62.060606 62.060606 0 0 1-62.060606-62.060607v-93.090909a31.030303 31.030303 0 0 1 31.030303-31.030303zM228.196848 606.952727a31.030303 31.030303 0 0 1 31.030304-31.030303h62.060606a31.030303 31.030303 0 1 1 0 62.060606h-62.060606a31.030303 31.030303 0 0 1-31.030304-31.030303zM662.621091 606.952727a31.030303 31.030303 0 0 1 31.030303-31.030303h62.060606a31.030303 31.030303 0 1 1 0 62.060606h-62.060606a31.030303 31.030303 0 0 1-31.030303-31.030303z"  /><path fill="#333333" d="M245.573818 182.551273a62.060606 62.060606 0 0 1 33.82303-10.022788h456.145455a62.060606 62.060606 0 0 1 56.723394 36.864l115.929212 260.840727a31.030303 31.030303 0 0 1 2.668606 12.598303v248.242424a31.030303 31.030303 0 0 1-31.030303 31.030303h-744.727273a31.030303 31.030303 0 0 1-31.030303-31.030303v-248.242424a31.030303 31.030303 0 0 1 2.668606-12.598303l115.929213-260.840727a62.060606 62.060606 0 0 1 22.900363-26.841212z m489.968485 52.037818h-456.145455l-113.260606 254.820848v210.633697h682.666667v-210.633697l-113.260606-254.820848z"  /></svg>