<?xml version="1.0" standalone="no"?><!DOCTYPE svg PUBLIC "-//W3C//DTD SVG 1.1//EN" "http://www.w3.org/Graphics/SVG/1.1/DTD/svg11.dtd"><svg class="icon" width="200px" height="200.00px" viewBox="0 0 1024 1024" version="1.1" xmlns="http://www.w3.org/2000/svg"><path fill="#333333" d="M42.01503 482.831515a31.030303 31.030303 0 0 1 31.030303-31.030303h868.848485a31.030303 31.030303 0 1 1 0 62.060606h-868.848485a31.030303 31.030303 0 0 1-31.030303-31.030303z"  /><path fill="#333333" d="M245.573818 182.551273a62.060606 62.060606 0 0 1 33.82303-10.022788h456.145455a62.060606 62.060606 0 0 1 56.723394 36.864l115.929212 260.840727a31.030303 31.030303 0 0 1 2.668606 12.598303v341.333333a62.060606 62.060606 0 0 1-62.060606 62.060607h-93.090909a62.060606 62.060606 0 0 1-62.060606-62.060607v-62.060606h-372.363636v62.060606a62.060606 62.060606 0 0 1-62.060606 62.060607h-93.09091a62.060606 62.060606 0 0 1-62.060606-62.060607v-341.333333a31.030303 31.030303 0 0 1 2.668606-12.598303l115.929213-260.840727 28.361697 12.598303-28.361697-12.598303a62.060606 62.060606 0 0 1 22.900363-26.841212z m489.968485 52.037818h-456.145455l-113.260606 254.820848V824.164848h93.09091v-93.090909a31.030303 31.030303 0 0 1 31.030303-31.030303h434.424242a31.030303 31.030303 0 0 1 31.030303 31.030303v93.090909h93.090909V489.409939l-113.260606-254.820848z"  /></svg>