<?xml version="1.0" standalone="no"?><!DOCTYPE svg PUBLIC "-//W3C//DTD SVG 1.1//EN" "http://www.w3.org/Graphics/SVG/1.1/DTD/svg11.dtd"><svg class="icon" width="200px" height="200.00px" viewBox="0 0 1024 1024" version="1.1" xmlns="http://www.w3.org/2000/svg"><path fill="#333333" d="M507.469576 172.528485c-188.509091 0-341.333333 152.824242-341.333334 341.333333s152.824242 341.333333 341.333334 341.333334 341.333333-152.824242 341.333333-341.333334-152.824242-341.333333-341.333333-341.333333z m-403.39394 341.333333c0-222.797576 180.596364-403.393939 403.39394-403.393939s403.393939 180.596364 403.393939 403.393939-180.596364 403.393939-403.393939 403.39394-403.393939-180.596364-403.39394-403.39394z"  /><path fill="#333333" d="M704.170667 316.695273a31.030303 31.030303 0 0 1 6.330181 34.753939l-108.947393 241.012364a31.030303 31.030303 0 0 1-16.073697 15.763394l-230.36897 98.707394a31.030303 31.030303 0 0 1-40.742788-40.742788l98.738424-230.36897a31.030303 31.030303 0 0 1 15.670303-16.042667l240.60897-109.381818a31.030303 31.030303 0 0 1 34.753939 6.299152z m-238.778182 154.624l-63.42594 148.014545 148.014546-63.425939 70.004364-154.841212-154.59297 70.252606z"  /></svg>