<?xml version="1.0" standalone="no"?><!DOCTYPE svg PUBLIC "-//W3C//DTD SVG 1.1//EN" "http://www.w3.org/Graphics/SVG/1.1/DTD/svg11.dtd"><svg class="icon" width="200px" height="200.00px" viewBox="0 0 1024 1024" version="1.1" xmlns="http://www.w3.org/2000/svg"><path fill="#333333" d="M507.469576 188.043636c-179.944727 0-325.818182 145.873455-325.818182 325.818182s145.873455 325.818182 325.818182 325.818182 325.818182-145.873455 325.818182-325.818182-145.873455-325.818182-325.818182-325.818182z m-387.878788 325.818182c0-214.202182 173.645576-387.878788 387.878788-387.878788s387.878788 173.645576 387.878788 387.878788-173.645576 387.878788-387.878788 387.878788-387.878788-173.645576-387.878788-387.878788z"  /><path fill="#333333" d="M507.469576 125.98303a31.030303 31.030303 0 0 1 31.030303 31.030303v155.151515a31.030303 31.030303 0 0 1-62.060606 0v-155.151515a31.030303 31.030303 0 0 1 31.030303-31.030303zM119.590788 513.861818a31.030303 31.030303 0 0 1 31.030303-31.030303h155.151515a31.030303 31.030303 0 1 1 0 62.060606h-155.151515a31.030303 31.030303 0 0 1-31.030303-31.030303zM507.469576 684.528485a31.030303 31.030303 0 0 1 31.030303 31.030303v155.151515a31.030303 31.030303 0 0 1-62.060606 0v-155.151515a31.030303 31.030303 0 0 1 31.030303-31.030303zM678.136242 513.861818a31.030303 31.030303 0 0 1 31.030303-31.030303h155.151516a31.030303 31.030303 0 1 1 0 62.060606h-155.151516a31.030303 31.030303 0 0 1-31.030303-31.030303z"  /></svg>