<?xml version="1.0" standalone="no"?><!DOCTYPE svg PUBLIC "-//W3C//DTD SVG 1.1//EN" "http://www.w3.org/Graphics/SVG/1.1/DTD/svg11.dtd"><svg class="icon" width="200px" height="200.00px" viewBox="0 0 1024 1024" version="1.1" xmlns="http://www.w3.org/2000/svg"><path fill="#333333" d="M512 85.333333C276.736 85.333333 85.333333 276.736 85.333333 512s191.402667 426.666667 426.666667 426.666667 426.666667-191.402667 426.666667-426.666667S747.264 85.333333 512 85.333333z m338.389333 469.333334A341.632 341.632 0 0 1 554.666667 850.389333V725.333333h-85.333334v125.056A341.674667 341.674667 0 0 1 173.610667 554.666667H298.666667v-85.333334H173.610667A341.674667 341.674667 0 0 1 469.333333 173.610667V298.666667h85.333334V173.610667A341.632 341.632 0 0 1 850.389333 469.333333H725.333333v85.333334h125.056z"  /></svg>