<?xml version="1.0" standalone="no"?><!DOCTYPE svg PUBLIC "-//W3C//DTD SVG 1.1//EN" "http://www.w3.org/Graphics/SVG/1.1/DTD/svg11.dtd"><svg class="icon" width="200px" height="200.00px" viewBox="0 0 1024 1024" version="1.1" xmlns="http://www.w3.org/2000/svg"><path fill="#333333" d="M73.045333 886.225455a31.030303 31.030303 0 0 1 31.030303-31.030303h806.787879a31.030303 31.030303 0 1 1 0 62.060606h-806.787879a31.030303 31.030303 0 0 1-31.030303-31.030303z"  /><path fill="#333333" d="M215.350303 128.651636a62.060606 62.060606 0 0 1 43.876849-18.183757h496.484848a62.060606 62.060606 0 0 1 62.060606 62.060606v713.69697a31.030303 31.030303 0 0 1-62.060606 0v-713.69697h-496.484848v713.69697a31.030303 31.030303 0 0 1-62.060607 0v-713.69697a62.060606 62.060606 0 0 1 18.183758-43.876849z"  /><path fill="#333333" d="M616.075636 560.407273a46.545455 46.545455 0 1 0 0-93.090909 46.545455 46.545455 0 0 0 0 93.090909z"  /></svg>