<?xml version="1.0" standalone="no"?><!DOCTYPE svg PUBLIC "-//W3C//DTD SVG 1.1//EN" "http://www.w3.org/Graphics/SVG/1.1/DTD/svg11.dtd"><svg class="icon" width="200px" height="200.00px" viewBox="0 0 1024 1024" version="1.1" xmlns="http://www.w3.org/2000/svg"><path fill="#333333" d="M596.437333 85.333333a42.837333 42.837333 0 0 0-30.549333 13.824l-469.333333 512a42.666667 42.666667 0 0 0 1.28 59.008l170.666666 170.666667A42.496 42.496 0 0 0 298.666667 853.333333h512v-85.333333h-195.669334l311.168-311.168a42.538667 42.538667 0 0 0 0-60.330667l-298.666666-298.666666A43.221333 43.221333 0 0 0 596.437333 85.333333z m-102.144 682.666667H316.330667l-129.28-129.28 268.8-293.205333 230.485333 230.485333-192.042667 192z m252.373334-252.330667l-233.130667-233.130666 85.12-92.842667L835.669333 426.666667 746.666667 515.669333z"  /></svg>