<?xml version="1.0" standalone="no"?><!DOCTYPE svg PUBLIC "-//W3C//DTD SVG 1.1//EN" "http://www.w3.org/Graphics/SVG/1.1/DTD/svg11.dtd"><svg class="icon" width="200px" height="200.00px" viewBox="0 0 1024 1024" version="1.1" xmlns="http://www.w3.org/2000/svg"><path fill="#333333" d="M166.136242 172.528485a31.030303 31.030303 0 0 1 31.030303 31.030303v651.636364a31.030303 31.030303 0 1 1-62.060606 0v-651.636364a31.030303 31.030303 0 0 1 31.030303-31.030303z"  /><path fill="#333333" d="M675.529697 225.062788c48.624485 5.057939 98.986667-4.561455 154.65503-46.297212a31.030303 31.030303 0 0 1 49.648485 24.824242v465.454546a31.030303 31.030303 0 0 1-12.412121 24.824242c-68.452848 51.324121-134.454303 65.008485-198.283636 58.39903-60.974545-6.299152-118.939152-31.154424-171.783758-53.806545l-2.110061-0.930909c-55.233939-23.645091-105.099636-44.745697-155.803151-49.989818-48.655515-5.026909-98.986667 4.561455-154.686061 46.328242a31.030303 31.030303 0 1 1-37.236363-49.648485c68.452848-51.355152 134.454303-65.008485 198.283636-58.43006 60.974545 6.330182 118.939152 31.185455 171.783758 53.806545l2.11006 0.930909c55.233939 23.645091 105.099636 44.745697 155.803152 49.989818 44.993939 4.654545 91.477333-3.196121 142.273939-37.453575V259.506424a261.306182 261.306182 0 0 1-148.635151 27.306667c-60.974545-6.299152-118.939152-31.154424-171.783758-53.806546l-2.110061-0.930909c-55.233939-23.645091-105.099636-44.745697-155.803151-49.989818-48.655515-5.026909-98.986667 4.561455-154.686061 46.328243a31.030303 31.030303 0 1 1-37.236363-49.648485c68.452848-51.355152 134.454303-65.008485 198.283636-58.430061 60.974545 6.330182 118.939152 31.185455 171.783758 53.806546l2.11006 0.930909c55.233939 23.645091 105.099636 44.745697 155.803152 49.989818z"  /></svg>