<?xml version="1.0" standalone="no"?><!DOCTYPE svg PUBLIC "-//W3C//DTD SVG 1.1//EN" "http://www.w3.org/Graphics/SVG/1.1/DTD/svg11.dtd"><svg class="icon" width="200px" height="200.00px" viewBox="0 0 1024 1024" version="1.1" xmlns="http://www.w3.org/2000/svg"><path fill="#333333" d="M507.469576 172.528485c-188.509091 0-341.333333 152.824242-341.333334 341.333333s152.824242 341.333333 341.333334 341.333334 341.333333-152.824242 341.333333-341.333334-152.824242-341.333333-341.333333-341.333333z m-403.39394 341.333333c0-222.797576 180.596364-403.393939 403.39394-403.393939s403.393939 180.596364 403.393939 403.393939-180.596364 403.393939-403.393939 403.39394-403.393939-180.596364-403.39394-403.39394z"  /><path fill="#333333" d="M104.075636 513.861818a31.030303 31.030303 0 0 1 31.030303-31.030303h744.727273a31.030303 31.030303 0 1 1 0 62.060606h-744.727273a31.030303 31.030303 0 0 1-31.030303-31.030303z"  /><path fill="#333333" d="M426.294303 269.839515c-26.065455 60.881455-42.945939 147.114667-42.945939 244.022303s16.880485 183.140848 42.945939 244.022303c13.032727 30.471758 27.803152 53.185939 42.604606 67.801212 14.646303 14.460121 27.648 19.518061 38.570667 19.518061 10.922667 0 23.893333-5.026909 38.601697-19.549091 14.770424-14.584242 29.509818-37.298424 42.573575-67.770182 26.065455-60.881455 42.945939-147.114667 42.94594-244.022303s-16.880485-183.140848-42.94594-244.022303c-13.032727-30.502788-27.803152-53.185939-42.573575-67.801212-14.677333-14.491152-27.67903-19.518061-38.601697-19.518061s-23.893333 5.026909-38.570667 19.549091c-14.801455 14.584242-29.571879 37.267394-42.604606 67.770182z m-1.024-111.957333c22.465939-22.186667 50.269091-37.422545 82.199273-37.422546s59.733333 15.235879 82.199272 37.422546c22.341818 22.062545 41.022061 52.441212 56.040728 87.505454 30.099394 70.314667 47.941818 165.236364 47.941818 268.474182 0 103.237818-17.842424 198.159515-47.941818 268.443152-15.018667 35.064242-33.698909 65.473939-56.040728 87.505454-22.465939 22.217697-50.269091 37.453576-82.199272 37.453576s-59.733333-15.235879-82.199273-37.422545c-22.341818-22.062545-41.022061-52.441212-56.040727-87.536485-30.099394-70.283636-47.941818-165.205333-47.941818-268.443152s17.842424-198.159515 47.941818-268.443151c15.018667-35.064242 33.698909-65.473939 56.040727-87.505455z"  /></svg>