<?xml version="1.0" standalone="no"?><!DOCTYPE svg PUBLIC "-//W3C//DTD SVG 1.1//EN" "http://www.w3.org/Graphics/SVG/1.1/DTD/svg11.dtd"><svg class="icon" width="200px" height="200.00px" viewBox="0 0 1024 1024" version="1.1" xmlns="http://www.w3.org/2000/svg"><path fill="#333333" d="M507.469576 172.528485c-188.509091 0-341.333333 152.824242-341.333334 341.333333s152.824242 341.333333 341.333334 341.333334 341.333333-152.824242 341.333333-341.333334-152.824242-341.333333-341.333333-341.333333z m-403.39394 341.333333c0-222.797576 180.596364-403.393939 403.39394-403.393939s403.393939 180.596364 403.393939 403.393939-180.596364 403.393939-403.393939 403.39394-403.393939-180.596364-403.39394-403.39394z"  /><path fill="#333333" d="M496.112485 509.021091a62.060606 62.060606 0 0 1 38.539636-7.323152l-2.668606 19.704243 2.668606-19.704243 88.498424 11.946667-4.12703 30.657939 4.12703-30.657939a62.060606 62.060606 0 0 1 24.203637 8.626424l210.571636 129.520485a31.030303 31.030303 0 1 1-32.488727 52.844606l-210.571636-129.489454m0 0l4.12703-30.751031-4.12703 30.72-88.529455-11.915636-53.123879 119.249455-24.482909-10.922667 24.482909 10.922667 72.921212 78.87903a62.060606 62.060606 0 0 1 15.36 53.899636l-14.863515 76.8a31.030303 31.030303 0 0 1-60.912485-11.791515l14.832485-76.8-72.921212-78.87903 22.55903-20.852364-22.528 20.852364a62.060606 62.060606 0 0 1-11.139878-67.366788l28.361697 12.629333-28.361697-12.629333 53.154909-119.249455a62.060606 62.060606 0 0 1 26.437818-28.920242m134.981818 39.718788l0.03103-0.062061v0.03103z"  /><path fill="#333333" d="M274.990545 204.489697a31.030303 31.030303 0 0 1 16.508122 40.649697l-34.691879 82.044121 44.559515 118.939152 83.130182 17.873454a62.060606 62.060606 0 0 1 42.821818 33.636849l-27.927273 13.529212 27.927273-13.529212 14.770424 30.502788h52.099879a31.030303 31.030303 0 0 1 0 62.060606h-52.130909a62.060606 62.060606 0 0 1-55.854545-35.033212l27.927272-13.498182-27.927272 13.498182-14.739394-30.471758-83.130182-17.873455a62.029576 62.029576 0 0 1-45.087031-38.912l-44.559515-118.939151a62.060606 62.060606 0 0 1 0.930909-45.955879l34.722909-82.044121a31.030303 31.030303 0 0 1 40.649697-16.477091z"  /><path fill="#333333" d="M587.217455 126.603636a31.030303 31.030303 0 0 1 42.201212 11.977697l36.212363 64.853334a62.060606 62.060606 0 0 1-12.567272 76.272485l-104.38594 94.394181c-3.537455 3.227152-7.447273 5.988848-11.605333 8.316122l-47.476364 26.220606a62.060606 62.060606 0 0 1-30.006303 7.726545h-82.819879l-32.271515 76.675879a31.030303 31.030303 0 1 1-57.219879-24.079515l32.302546-76.675879a62.060606 62.060606 0 0 1 57.188848-37.981091h82.819879l47.476364-26.220606 104.385939-94.394182-36.212363-64.853333a31.030303 31.030303 0 0 1 11.977697-42.201212z"  /></svg>