<?xml version="1.0" standalone="no"?><!DOCTYPE svg PUBLIC "-//W3C//DTD SVG 1.1//EN" "http://www.w3.org/Graphics/SVG/1.1/DTD/svg11.dtd"><svg class="icon" width="200px" height="200.00px" viewBox="0 0 1024 1024" version="1.1" xmlns="http://www.w3.org/2000/svg"><path fill="#333333" d="M507.469576 172.528485c-188.509091 0-341.333333 152.824242-341.333334 341.333333s152.824242 341.333333 341.333334 341.333334 341.333333-152.824242 341.333333-341.333334-152.824242-341.333333-341.333333-341.333333z m-403.39394 341.333333c0-222.797576 180.596364-403.393939 403.39394-403.393939s403.393939 180.596364 403.393939 403.393939-180.596364 403.393939-403.393939 403.39394-403.393939-180.596364-403.39394-403.39394z"  /><path fill="#333333" d="M718.041212 176.779636a31.030303 31.030303 0 0 1 32.519758 29.509819l4.530424 94.27006a62.060606 62.060606 0 0 1-15.080727 43.597576l-85.95394 99.29697a62.060606 62.060606 0 0 1-38.570666 20.883394l-122.104243 16.539151a62.060606 62.060606 0 0 1-44.745697-11.23297L372.363636 414.409697l-76.955151 120.614788-0.806788 140.132848a62.060606 62.060606 0 0 1-29.975273 52.782546l-45.304242 27.337697a31.030303 31.030303 0 0 1-32.054303-53.123879l45.304242-27.337697 0.775758-140.132848a62.060606 62.060606 0 0 1 9.743515-33.047273l76.955151-120.614788a62.091636 62.091636 0 0 1 88.746667-16.880485l76.210424 55.233939 122.104243-16.539151 85.953939-99.29697-4.530424-94.27006a31.030303 31.030303 0 0 1 29.478788-32.488728z"  /></svg>