<?xml version="1.0" standalone="no"?><!DOCTYPE svg PUBLIC "-//W3C//DTD SVG 1.1//EN" "http://www.w3.org/Graphics/SVG/1.1/DTD/svg11.dtd"><svg class="icon" width="200px" height="200.00px" viewBox="0 0 1024 1024" version="1.1" xmlns="http://www.w3.org/2000/svg"><path fill="#333333" d="M507.469576 141.498182a248.242424 248.242424 0 1 0 0 496.484848 248.242424 248.242424 0 0 0 0-496.484848z m-310.303031 248.242424c0-171.411394 138.922667-310.30303 310.303031-310.30303s310.30303 138.891636 310.30303 310.30303c0 171.349333-138.922667 310.30303-310.30303 310.30303s-310.30303-138.953697-310.303031-310.30303z"  /><path fill="#333333" d="M244.177455 82.540606a31.030303 31.030303 0 0 1 0 43.876849 372.363636 372.363636 0 1 0 526.584242 526.584242 31.030303 31.030303 0 0 1 43.907879 43.907879 434.424242 434.424242 0 0 1-614.4-614.4 31.030303 31.030303 0 0 1 43.907879 0zM352.318061 917.255758a31.030303 31.030303 0 0 1 31.030303-31.030303h248.242424a31.030303 31.030303 0 1 1 0 62.060606h-248.242424a31.030303 31.030303 0 0 1-31.030303-31.030303z"  /><path fill="#333333" d="M507.469576 762.104242a31.030303 31.030303 0 0 1 31.030303 31.030303v124.121213a31.030303 31.030303 0 1 1-62.060606 0v-124.121213a31.030303 31.030303 0 0 1 31.030303-31.030303z"  /></svg>