<?xml version="1.0" standalone="no"?><!DOCTYPE svg PUBLIC "-//W3C//DTD SVG 1.1//EN" "http://www.w3.org/Graphics/SVG/1.1/DTD/svg11.dtd"><svg class="icon" width="200px" height="200.00px" viewBox="0 0 1024 1024" version="1.1" xmlns="http://www.w3.org/2000/svg"><path fill="#333333" d="M465.702788 137.464242a62.060606 62.060606 0 0 1 83.471515 0L859.539394 419.653818a62.029576 62.029576 0 0 1 20.324848 45.924849V824.164848a62.029576 62.029576 0 0 1-62.060606 62.060607h-186.212848a62.060606 62.060606 0 0 1-62.060606-62.060607v-186.181818h-124.121212v186.181818a62.060606 62.060606 0 0 1-62.060606 62.060607H197.197576a62.029576 62.029576 0 0 1-62.060606-62.060607V465.547636a62.060606 62.060606 0 0 1 20.324848-45.924848l310.272-282.127515z m352.069818 328.052364l-310.30303-282.096485-310.303031 282.096485V824.164848h186.181819v-186.181818a62.060606 62.060606 0 0 1 62.060606-62.060606h124.121212a62.060606 62.060606 0 0 1 62.060606 62.060606v186.181818h186.181818V465.547636z"  /></svg>