<?xml version="1.0" standalone="no"?><!DOCTYPE svg PUBLIC "-//W3C//DTD SVG 1.1//EN" "http://www.w3.org/Graphics/SVG/1.1/DTD/svg11.dtd"><svg class="icon" width="200px" height="200.00px" viewBox="0 0 1024 1024" version="1.1" xmlns="http://www.w3.org/2000/svg"><path fill="#333333" d="M465.702788 137.464242a62.060606 62.060606 0 0 1 83.471515 0L859.539394 419.653818a62.029576 62.029576 0 0 1 20.324848 45.924849V855.195152a31.030303 31.030303 0 1 1-62.060606 0V465.547636l-310.30303-282.127515-310.30303 282.096485V855.195152a31.030303 31.030303 0 1 1-62.060606 0V465.547636a62.060606 62.060606 0 0 1 20.324848-45.924848l310.272-282.127515z"  /><path fill="#333333" d="M42.01503 855.195152a31.030303 31.030303 0 0 1 31.030303-31.030304h868.848485a31.030303 31.030303 0 1 1 0 62.060607h-868.848485a31.030303 31.030303 0 0 1-31.030303-31.030303z"  /><path fill="#333333" d="M401.532121 594.075152a62.060606 62.060606 0 0 1 43.876849-18.183758h124.121212a62.060606 62.060606 0 0 1 62.060606 62.060606v217.212121a31.030303 31.030303 0 1 1-62.060606 0v-217.212121h-124.121212v217.212121a31.030303 31.030303 0 1 1-62.060606 0v-217.212121a62.060606 62.060606 0 0 1 18.152727-43.876848z"  /></svg>