<?xml version="1.0" standalone="no"?><!DOCTYPE svg PUBLIC "-//W3C//DTD SVG 1.1//EN" "http://www.w3.org/Graphics/SVG/1.1/DTD/svg11.dtd"><svg class="icon" width="200px" height="200.00px" viewBox="0 0 1024 1024" version="1.1" xmlns="http://www.w3.org/2000/svg"><path fill="#333333" d="M895.957333 170.666667H136.576c-24.917333-5.12-51.285333 15.274667-51.285333 41.770666V810.666667a42.666667 42.666667 0 0 0 42.666666 42.666666h768a42.666667 42.666667 0 0 0 42.666667-42.666666V213.333333a42.666667 42.666667 0 0 0-42.666667-42.666666z m-42.666666 597.333333h-682.666667V256h682.666667v512z"  /><path fill="#333333" d="M512 682.666667h255.957333L597.333333 341.333333l-155.178666 248.234667L383.957333 512l-128 170.666667h128z"  /><path fill="#333333" d="M319.957333 405.333333m-64 0a64 64 0 1 0 128 0 64 64 0 1 0-128 0Z"  /></svg>