<?xml version="1.0" standalone="no"?><!DOCTYPE svg PUBLIC "-//W3C//DTD SVG 1.1//EN" "http://www.w3.org/Graphics/SVG/1.1/DTD/svg11.dtd"><svg class="icon" width="200px" height="200.00px" viewBox="0 0 1024 1024" version="1.1" xmlns="http://www.w3.org/2000/svg"><path fill="#333333" d="M709.166545 669.013333a31.030303 31.030303 0 0 1 31.030303 31.030303v124.121212h93.09091v-124.121212a31.030303 31.030303 0 1 1 62.060606 0v124.121212a62.060606 62.060606 0 0 1-62.060606 62.060607h-93.09091a62.060606 62.060606 0 0 1-62.060606-62.060607v-124.121212a31.030303 31.030303 0 0 1 31.030303-31.030303zM150.621091 669.013333a31.030303 31.030303 0 0 1 31.030303 31.030303v124.121212h93.090909v-124.121212a31.030303 31.030303 0 1 1 62.060606 0v124.121212a62.060606 62.060606 0 0 1-62.060606 62.060607h-93.090909a62.060606 62.060606 0 0 1-62.060606-62.060607v-124.121212a31.030303 31.030303 0 0 1 31.030303-31.030303zM42.01503 389.740606a31.030303 31.030303 0 0 1 31.030303-31.030303h868.848485a31.030303 31.030303 0 1 1 0 62.060606h-868.848485a31.030303 31.030303 0 0 1-31.030303-31.030303zM569.530182 482.831515a31.030303 31.030303 0 0 1 31.030303 31.030303v186.181818a31.030303 31.030303 0 0 1-62.060606 0v-186.181818a31.030303 31.030303 0 0 1 31.030303-31.030303zM445.40897 482.831515a31.030303 31.030303 0 0 1 31.030303 31.030303v186.181818a31.030303 31.030303 0 0 1-62.060606 0v-186.181818a31.030303 31.030303 0 0 1 31.030303-31.030303z"  /><path fill="#333333" d="M167.873939 156.70303a62.060606 62.060606 0 0 1 40.680728-15.204848h597.829818a62.060606 62.060606 0 0 1 61.44 53.27903l27.213576 190.588121c0.217212 1.427394 0.310303 2.916848 0.310303 4.375273v310.30303a31.030303 31.030303 0 0 1-31.030303 31.030303h-713.69697a31.030303 31.030303 0 0 1-31.030303-31.030303v-310.30303c0-1.458424 0.093091-2.947879 0.310303-4.375273l27.213576-190.588121a62.060606 62.060606 0 0 1 20.790303-38.105212z m638.510546 46.855758H208.523636l-26.903272 188.38497v277.100606h651.636363v-277.100606l-26.903272-188.35394z"  /><path fill="#333333" d="M290.257455 575.922424a46.545455 46.545455 0 1 0 0-93.090909 46.545455 46.545455 0 0 0 0 93.090909zM724.681697 575.922424a46.545455 46.545455 0 1 0 0-93.090909 46.545455 46.545455 0 0 0 0 93.090909z"  /></svg>