<?xml version="1.0" standalone="no"?><!DOCTYPE svg PUBLIC "-//W3C//DTD SVG 1.1//EN" "http://www.w3.org/Graphics/SVG/1.1/DTD/svg11.dtd"><svg class="icon" width="200px" height="200.00px" viewBox="0 0 1024 1024" version="1.1" xmlns="http://www.w3.org/2000/svg"><path fill="#333333" d="M852.053333 501.674667A42.709333 42.709333 0 0 0 810.666667 469.333333h-256V377.045333c61.44-18.517333 106.666667-74.965333 106.666666-142.378666C661.333333 152.32 594.346667 85.333333 512 85.333333S362.666667 152.32 362.666667 234.666667c0 67.413333 45.226667 123.861333 106.666666 142.378666V469.333333H213.333333c-19.584 0-36.608 13.354667-41.386666 32.341334l-85.333334 341.333333A42.581333 42.581333 0 0 0 128 896h768a42.581333 42.581333 0 0 0 41.386667-52.992l-85.333334-341.333333zM448 234.666667c0-35.285333 28.714667-64 64-64s64 28.714667 64 64S547.285333 298.666667 512 298.666667s-64-28.714667-64-64zM182.656 810.666667l64-256H469.333333v85.333333l42.666667 85.333333 42.666667-85.333333v-85.333333h222.677333l64 256H182.656z"  /></svg>