<?xml version="1.0" standalone="no"?><!DOCTYPE svg PUBLIC "-//W3C//DTD SVG 1.1//EN" "http://www.w3.org/Graphics/SVG/1.1/DTD/svg11.dtd"><svg class="icon" width="200px" height="200.00px" viewBox="0 0 1024 1024" version="1.1" xmlns="http://www.w3.org/2000/svg"><path fill="#333333" d="M512 597.333333c94.122667 0 170.666667-76.544 170.666667-170.666666s-76.544-170.666667-170.666667-170.666667-170.666667 76.544-170.666667 170.666667 76.544 170.666667 170.666667 170.666666z m0-256c47.061333 0 85.333333 38.272 85.333333 85.333334s-38.272 85.333333-85.333333 85.333333-85.333333-38.272-85.333333-85.333333 38.272-85.333333 85.333333-85.333334z"  /><path fill="#333333" d="M487.253333 930.730667a42.581333 42.581333 0 0 0 49.493334 0C549.717333 921.557333 854.570667 701.44 853.333333 426.666667c0-188.202667-153.130667-341.333333-341.333333-341.333334S170.666667 238.464 170.666667 426.453333c-1.237333 274.986667 303.616 495.104 316.586666 504.277334zM512 170.666667c141.184 0 256 114.816 256 256.213333 0.896 189.354667-187.221333 359.381333-256 415.146667-68.736-55.808-256.896-225.877333-256-415.36 0-141.184 114.816-256 256-256z"  /></svg>