<?xml version="1.0" standalone="no"?><!DOCTYPE svg PUBLIC "-//W3C//DTD SVG 1.1//EN" "http://www.w3.org/Graphics/SVG/1.1/DTD/svg11.dtd"><svg class="icon" width="200px" height="200.00px" viewBox="0 0 1024 1024" version="1.1" xmlns="http://www.w3.org/2000/svg"><path fill="#333333" d="M197.166545 917.255758a31.030303 31.030303 0 0 1 31.030303-31.030303h558.545455a31.030303 31.030303 0 1 1 0 62.060606h-558.545455a31.030303 31.030303 0 0 1-31.030303-31.030303zM507.469576 327.68a93.090909 93.090909 0 1 0 0 186.181818 93.090909 93.090909 0 0 0 0-186.181818z m-155.151515 93.090909a155.151515 155.151515 0 1 1 310.30303 0 155.151515 155.151515 0 0 1-310.30303 0z"  /><path fill="#333333" d="M507.469576 141.498182a279.272727 279.272727 0 0 0-279.272728 279.272727c0 128.465455 71.742061 245.449697 147.549091 332.613818a978.292364 978.292364 0 0 0 131.723637 125.083152 978.571636 978.571636 0 0 0 131.723636-125.083152c75.80703-87.195152 147.549091-204.148364 147.549091-332.613818a279.272727 279.272727 0 0 0-279.272727-279.272727z m0 775.757576c-17.780364 25.444848-17.811394 25.444848-17.811394 25.413818l-0.093091-0.062061-0.248243-0.186182-0.775757-0.558545a570.33697 570.33697 0 0 1-13.249939-9.836606c-8.874667-6.764606-21.410909-16.663273-36.398546-29.416727a1039.794424 1039.794424 0 0 1-110.002424-108.51297c-79.344485-91.229091-162.753939-222.487273-162.75394-373.294546a341.333333 341.333333 0 1 1 682.666667 0c0 150.807273-83.409455 282.065455-162.753939 373.294546a1040.104727 1040.104727 0 0 1-110.002425 108.51297 909.374061 909.374061 0 0 1-46.793697 37.205333l-2.854787 2.048-0.775758 0.558545-0.248242 0.186182-0.062061 0.03103c-0.03103 0.03103-0.062061 0.03103-17.842424-25.382787z m0 0l17.780363 25.444848a31.030303 31.030303 0 0 1-35.560727 0l17.780364-25.444848z"  /></svg>