<?xml version="1.0" standalone="no"?><!DOCTYPE svg PUBLIC "-//W3C//DTD SVG 1.1//EN" "http://www.w3.org/Graphics/SVG/1.1/DTD/svg11.dtd"><svg class="icon" width="200px" height="200.00px" viewBox="0 0 1024 1024" version="1.1" xmlns="http://www.w3.org/2000/svg"><path fill="#333333" d="M413.447758 165.019152a31.030303 31.030303 0 0 1-22.559031 37.608727L166.136242 258.792727v494.623031l209.671758-52.441213a31.030303 31.030303 0 1 1 15.080727 60.198788l-248.242424 62.060606a31.030303 31.030303 0 0 1-38.570667-30.099394v-558.545454a31.030303 31.030303 0 0 1 23.48994-30.099394l248.242424-62.060606a31.030303 31.030303 0 0 1 37.639758 22.590061z"  /><path fill="#333333" d="M367.026424 146.152727a31.030303 31.030303 0 0 1 30.192485-1.365333l248.242424 124.121212a31.030303 31.030303 0 0 1 17.159758 27.741091v558.545455a31.030303 31.030303 0 0 1-44.900849 27.772121l-248.242424-124.121212a31.030303 31.030303 0 0 1-17.159757-27.772122v-558.545454a31.030303 31.030303 0 0 1 14.708363-26.375758z m47.352243 76.582788v489.161697l186.181818 93.090909V315.826424l-186.181818-93.090909z"  /><path fill="#333333" d="M898.947879 210.137212a31.030303 31.030303 0 0 1 11.915636 24.451879v558.545454a31.030303 31.030303 0 0 1-23.489939 30.099394l-248.242424 62.060606a31.030303 31.030303 0 1 1-15.049697-60.198787l224.721454-56.164849V274.307879l-209.671757 52.441212a31.030303 31.030303 0 1 1-15.049697-60.198788l248.242424-62.060606a31.030303 31.030303 0 0 1 26.624 5.647515z"  /></svg>