<?xml version="1.0" standalone="no"?><!DOCTYPE svg PUBLIC "-//W3C//DTD SVG 1.1//EN" "http://www.w3.org/Graphics/SVG/1.1/DTD/svg11.dtd"><svg class="icon" width="200px" height="200.00px" viewBox="0 0 1024 1024" version="1.1" xmlns="http://www.w3.org/2000/svg"><path fill="#333333" d="M171.411394 131.258182a62.060606 62.060606 0 0 1 34.226424 1.799757l656.694303 227.328a62.060606 62.060606 0 0 1-2.048 117.977213l-296.96 91.353212-91.353212 296.96a62.060606 62.060606 0 0 1-117.977212 2.048L126.696727 212.030061a62.060606 62.060606 0 0 1 44.714667-80.802909z m-15.204849 70.531879l29.137455-10.084849 227.29697 656.694303 91.384242-296.96a62.060606 62.060606 0 0 1 41.053091-41.053091l296.96-91.353212L185.344 191.705212l-29.168485 10.084849z"  /></svg>