<?xml version="1.0" standalone="no"?><!DOCTYPE svg PUBLIC "-//W3C//DTD SVG 1.1//EN" "http://www.w3.org/Graphics/SVG/1.1/DTD/svg11.dtd"><svg class="icon" width="200px" height="200.00px" viewBox="0 0 1024 1024" version="1.1" xmlns="http://www.w3.org/2000/svg"><path fill="#333333" d="M786.742303 731.073939a62.060606 62.060606 0 1 0 0 124.121213 62.060606 62.060606 0 0 0 0-124.121213z m-124.121212 62.060606a124.121212 124.121212 0 1 1 248.242424 0 124.121212 124.121212 0 0 1-248.242424 0z"  /><path fill="#333333" d="M259.227152 234.589091a31.030303 31.030303 0 0 1 31.030303-31.030303h372.363636a155.151515 155.151515 0 1 1 0 310.30303h-372.363636a124.121212 124.121212 0 1 0 0 248.242424h403.393939a31.030303 31.030303 0 1 1 0 62.060606h-403.393939a186.181818 186.181818 0 0 1 0-372.363636h372.363636a93.090909 93.090909 0 0 0 0-186.181818h-372.363636a31.030303 31.030303 0 0 1-31.030303-31.030303z"  /></svg>