<?xml version="1.0" standalone="no"?><!DOCTYPE svg PUBLIC "-//W3C//DTD SVG 1.1//EN" "http://www.w3.org/Graphics/SVG/1.1/DTD/svg11.dtd"><svg class="icon" width="200px" height="200.00px" viewBox="0 0 1024 1024" version="1.1" xmlns="http://www.w3.org/2000/svg"><path fill="#333333" d="M896 298.666667h-85.333333V128a42.666667 42.666667 0 0 0-42.666667-42.666667H256a42.666667 42.666667 0 0 0-42.666667 42.666667v170.666667H128a42.666667 42.666667 0 0 0-42.666667 42.666666v426.666667a42.666667 42.666667 0 0 0 42.666667 42.666667h170.666667v85.333333a42.666667 42.666667 0 0 0 42.666666 42.666667h341.333334a42.666667 42.666667 0 0 0 42.666666-42.666667v-85.333333h170.666667a42.666667 42.666667 0 0 0 42.666667-42.666667V341.333333a42.666667 42.666667 0 0 0-42.666667-42.666666zM298.666667 170.666667h426.666666v128H298.666667V170.666667z m341.333333 597.333333v85.333333H384v-213.333333h256v128z m213.333333-42.666667h-128v-128a42.666667 42.666667 0 0 0-42.666666-42.666666H341.333333a42.666667 42.666667 0 0 0-42.666666 42.666666v128H170.666667V384h682.666666v341.333333z"  /><path fill="#333333" d="M725.333333 426.666667h85.333334v85.333333h-85.333334z m-128 0h85.333334v85.333333h-85.333334z"  /></svg>