<?xml version="1.0" standalone="no"?><!DOCTYPE svg PUBLIC "-//W3C//DTD SVG 1.1//EN" "http://www.w3.org/Graphics/SVG/1.1/DTD/svg11.dtd"><svg class="icon" width="200px" height="200.00px" viewBox="0 0 1024 1024" version="1.1" xmlns="http://www.w3.org/2000/svg"><path fill="#333333" d="M512 85.333333C280.704 85.333333 85.333333 280.746667 85.333333 512s195.370667 426.666667 426.666667 426.666667 426.666667-195.413333 426.666667-426.666667S743.296 85.333333 512 85.333333z m0 768c-185.045333 0-341.333333-156.330667-341.333333-341.333333 0-170.581333 132.906667-316.458667 298.666666-338.218667V259.84C348.458667 280.277333 256 385.408 256 512c0 141.184 114.816 256 256 256 68.053333 0 132.266667-26.709333 180.778667-75.221333l-60.330667-60.373334A169.386667 169.386667 0 0 1 512 682.666667c-94.122667 0-170.666667-76.544-170.666667-170.666667 0-79.274667 54.570667-145.536 128-164.608v91.562667c-25.173333 15.061333-42.666667 42.368-42.666666 73.045333 0 46.122667 39.210667 85.333333 85.333333 85.333333s85.333333-39.210667 85.333333-85.333333c0-30.677333-17.493333-57.984-42.666666-73.045333V173.781333c165.76 21.76 298.666667 167.637333 298.666666 338.218667 0 185.002667-156.288 341.333333-341.333333 341.333333z"  /></svg>