<?xml version="1.0" standalone="no"?><!DOCTYPE svg PUBLIC "-//W3C//DTD SVG 1.1//EN" "http://www.w3.org/Graphics/SVG/1.1/DTD/svg11.dtd"><svg class="icon" width="200px" height="200.00px" viewBox="0 0 1024 1024" version="1.1" xmlns="http://www.w3.org/2000/svg"><path fill="#333333" d="M853.333333 384a42.666667 42.666667 0 0 0 42.666667-42.666667V170.666667a42.666667 42.666667 0 0 0-42.666667-42.666667h-170.666666a42.666667 42.666667 0 0 0-42.666667 42.666667v42.666666H384V170.666667a42.666667 42.666667 0 0 0-42.666667-42.666667H170.666667a42.666667 42.666667 0 0 0-42.666667 42.666667v170.666666a42.666667 42.666667 0 0 0 42.666667 42.666667h42.666666v256H170.666667a42.666667 42.666667 0 0 0-42.666667 42.666667v170.666666a42.666667 42.666667 0 0 0 42.666667 42.666667h170.666666a42.666667 42.666667 0 0 0 42.666667-42.666667v-42.666666h256v42.666666a42.666667 42.666667 0 0 0 42.666667 42.666667h170.666666a42.666667 42.666667 0 0 0 42.666667-42.666667v-170.666666a42.666667 42.666667 0 0 0-42.666667-42.666667h-42.666666V384h42.666666zM213.333333 213.333333h85.333334v85.333334H213.333333V213.333333z m85.333334 597.333334H213.333333v-85.333334h85.333334v85.333334z m341.333333-128v42.666666H384v-42.666666a42.666667 42.666667 0 0 0-42.666667-42.666667H298.666667V384h42.666666a42.666667 42.666667 0 0 0 42.666667-42.666667V298.666667h256v42.666666a42.666667 42.666667 0 0 0 42.666667 42.666667h42.666666v256h-42.666666a42.666667 42.666667 0 0 0-42.666667 42.666667z m170.666667 128h-85.333334v-85.333334h85.333334v85.333334zM725.333333 298.666667V213.333333h85.333334v85.333334h-85.333334z"  /></svg>