<?xml version="1.0" standalone="no"?><!DOCTYPE svg PUBLIC "-//W3C//DTD SVG 1.1//EN" "http://www.w3.org/Graphics/SVG/1.1/DTD/svg11.dtd"><svg class="icon" width="200px" height="200.00px" viewBox="0 0 1024 1024" version="1.1" xmlns="http://www.w3.org/2000/svg"><path fill="#333333" d="M85.333333 490.666667C85.333333 573.013333 152.32 640 234.666667 640c38.826667 0 73.941333-15.274667 100.565333-39.68l267.093333 152.618667A148.608 148.608 0 0 0 597.333333 789.333333c0 82.346667 66.986667 149.333333 149.333334 149.333334s149.333333-66.986667 149.333333-149.333334-66.986667-149.333333-149.333333-149.333333c-38.826667 0-73.941333 15.274667-100.565334 39.68l-267.093333-152.618667c2.688-10.538667 4.394667-21.418667 4.608-32.768l262.442667-149.973333c26.666667 24.405333 61.781333 39.68 100.608 39.68C829.013333 384 896 317.013333 896 234.666667S829.013333 85.333333 746.666667 85.333333 597.333333 152.32 597.333333 234.666667c0 12.629333 2.048 24.661333 4.992 36.394666L359.808 409.685333A149.162667 149.162667 0 0 0 234.666667 341.333333C152.32 341.333333 85.333333 408.32 85.333333 490.666667zM746.666667 725.333333c35.285333 0 64 28.714667 64 64s-28.714667 64-64 64-64-28.714667-64-64 28.714667-64 64-64z m0-554.666666c35.285333 0 64 28.714667 64 64S781.952 298.666667 746.666667 298.666667 682.666667 269.952 682.666667 234.666667 711.381333 170.666667 746.666667 170.666667z m-512 256c35.285333 0 64 28.714667 64 64S269.952 554.666667 234.666667 554.666667 170.666667 525.952 170.666667 490.666667 199.381333 426.666667 234.666667 426.666667z"  /></svg>