<?xml version="1.0" standalone="no"?><!DOCTYPE svg PUBLIC "-//W3C//DTD SVG 1.1//EN" "http://www.w3.org/Graphics/SVG/1.1/DTD/svg11.dtd"><svg class="icon" width="200px" height="200.00px" viewBox="0 0 1024 1024" version="1.1" xmlns="http://www.w3.org/2000/svg"><path fill="#333333" d="M104.075636 327.68a62.060606 62.060606 0 0 1 62.060606-62.060606h682.666667a62.060606 62.060606 0 0 1 62.060606 62.060606v496.484848a62.060606 62.060606 0 0 1-62.060606 62.060607h-682.666667a62.060606 62.060606 0 0 1-62.060606-62.060607v-496.484848z m744.727273 0h-682.666667v496.484848h682.666667v-496.484848z"  /><path fill="#333333" d="M348.563394 168.773818a93.090909 93.090909 0 0 1 65.815273-27.275636h186.181818a93.090909 93.090909 0 0 1 93.090909 93.090909v620.606061a31.030303 31.030303 0 0 1-62.060606 0v-620.606061a31.030303 31.030303 0 0 0-31.030303-31.030303h-186.181818a31.030303 31.030303 0 0 0-31.030303 31.030303v620.606061a31.030303 31.030303 0 0 1-62.060606 0v-620.606061a93.090909 93.090909 0 0 1 27.275636-65.815273z"  /></svg>