<?xml version="1.0" standalone="no"?><!DOCTYPE svg PUBLIC "-//W3C//DTD SVG 1.1//EN" "http://www.w3.org/Graphics/SVG/1.1/DTD/svg11.dtd"><svg class="icon" width="200px" height="200.00px" viewBox="0 0 1024 1024" version="1.1" xmlns="http://www.w3.org/2000/svg"><path fill="#333333" d="M512 512m-128 0a128 128 0 1 0 256 0 128 128 0 1 0-256 0Z"  /><path fill="#333333" d="M554.666667 173.610667V85.333333h-85.333334v88.277334A341.674667 341.674667 0 0 0 173.610667 469.333333H85.333333v85.333334h88.277334A341.632 341.632 0 0 0 469.333333 850.389333V938.666667h85.333334v-88.277334A341.632 341.632 0 0 0 850.389333 554.666667H938.666667v-85.333334h-88.277334A341.674667 341.674667 0 0 0 554.666667 173.610667zM512 768c-141.184 0-256-114.816-256-256s114.816-256 256-256 256 114.816 256 256-114.816 256-256 256z"  /></svg>