<?xml version="1.0" standalone="no"?><!DOCTYPE svg PUBLIC "-//W3C//DTD SVG 1.1//EN" "http://www.w3.org/Graphics/SVG/1.1/DTD/svg11.dtd"><svg class="icon" width="200px" height="200.00px" viewBox="0 0 1024 1024" version="1.1" xmlns="http://www.w3.org/2000/svg"><path fill="#333333" d="M547.591758 367.802182a31.030303 31.030303 0 0 1 43.876848 0l93.090909 93.090909a31.030303 31.030303 0 0 1 0 43.876848l-93.090909 93.090909a31.030303 31.030303 0 0 1-43.876848-43.876848l71.152484-71.152485-71.152484-71.152485a31.030303 31.030303 0 0 1 0-43.876848z"  /><path fill="#333333" d="M57.530182 557.738667a62.060606 62.060606 0 0 1 0-87.753697L463.592727 63.922424a62.060606 62.060606 0 0 1 87.753697 0l406.062546 406.062546a62.060606 62.060606 0 0 1 0 87.753697L551.346424 963.801212a62.060606 62.060606 0 0 1-87.753697 0L57.530182 557.738667z m449.939394-449.939394L101.40703 513.861818l406.062546 406.062546L913.532121 513.861818 507.469576 107.799273z"  /><path fill="#333333" d="M445.40897 513.861818a62.060606 62.060606 0 0 0-62.060606 62.060606v31.030303a31.030303 31.030303 0 0 1-62.060606 0v-31.030303a124.121212 124.121212 0 0 1 124.121212-124.121212h217.212121a31.030303 31.030303 0 1 1 0 62.060606h-217.212121z"  /></svg>