<?xml version="1.0" standalone="no"?><!DOCTYPE svg PUBLIC "-//W3C//DTD SVG 1.1//EN" "http://www.w3.org/Graphics/SVG/1.1/DTD/svg11.dtd"><svg class="icon" width="200px" height="200.00px" viewBox="0 0 1024 1024" version="1.1" xmlns="http://www.w3.org/2000/svg"><path fill="#333333" d="M150.621091 513.861818a31.030303 31.030303 0 0 1 31.030303-31.030303h651.636364a31.030303 31.030303 0 1 1 0 62.060606h-651.636364a31.030303 31.030303 0 0 1-31.030303-31.030303zM401.966545 799.340606a31.030303 31.030303 0 0 1 6.206061 43.442424l-93.090909 124.121212a31.030303 31.030303 0 0 1-49.648485-37.236363l93.090909-124.121212a31.030303 31.030303 0 0 1 43.442424-6.206061zM612.972606 799.340606a31.030303 31.030303 0 0 1 43.442424 6.206061l93.090909 124.121212a31.030303 31.030303 0 0 1-49.648484 37.236363l-93.09091-124.121212a31.030303 31.030303 0 0 1 6.206061-43.442424z"  /><path fill="#333333" d="M274.742303 172.528485a62.060606 62.060606 0 0 0-62.060606 62.060606v496.484848a62.060606 62.060606 0 0 0 62.060606 62.060606h465.454545a62.060606 62.060606 0 0 0 62.060607-62.060606v-496.484848a62.060606 62.060606 0 0 0-62.060607-62.060606h-465.454545z m-124.121212 62.060606a124.121212 124.121212 0 0 1 124.121212-124.121212h465.454545a124.121212 124.121212 0 0 1 124.121213 124.121212v496.484848a124.121212 124.121212 0 0 1-124.121213 124.121213h-465.454545a124.121212 124.121212 0 0 1-124.121212-124.121213v-496.484848z"  /><path fill="#333333" d="M336.802909 731.073939a46.545455 46.545455 0 1 0 0-93.090909 46.545455 46.545455 0 0 0 0 93.090909zM678.136242 731.073939a46.545455 46.545455 0 1 0 0-93.090909 46.545455 46.545455 0 0 0 0 93.090909z"  /></svg>