<?xml version="1.0" standalone="no"?><!DOCTYPE svg PUBLIC "-//W3C//DTD SVG 1.1//EN" "http://www.w3.org/Graphics/SVG/1.1/DTD/svg11.dtd"><svg class="icon" width="200px" height="200.00px" viewBox="0 0 1024 1024" version="1.1" xmlns="http://www.w3.org/2000/svg"><path fill="#333333" d="M245.263515 123.190303a62.060606 62.060606 0 0 1 37.670788-12.722424H732.004848a62.060606 62.060606 0 0 1 59.888485 45.738666l86.853819 318.464c1.458424 5.337212 1.458424 10.984727 0 16.32194l-86.884849 318.464a62.060606 62.060606 0 0 1-59.857455 45.738667H282.934303a62.060606 62.060606 0 0 1-59.888485-45.738667L136.22303 490.992485a31.030303 31.030303 0 0 1 0-16.32194l86.884849-318.464a62.060606 62.060606 0 0 1 22.186666-32.985212zM732.004848 172.528485H282.934303l-84.619636 310.30303 84.619636 310.30303H732.004848l84.619637-310.30303-84.619637-310.30303z"  /><path fill="#333333" d="M507.469576 513.861818a31.030303 31.030303 0 0 1 31.030303 31.030303v279.272727a31.030303 31.030303 0 0 1-62.060606 0v-279.272727a31.030303 31.030303 0 0 1 31.030303-31.030303z"  /><path fill="#333333" d="M135.602424 477.277091a31.030303 31.030303 0 0 1 36.088243-24.979394l335.778909 61.067636 335.778909-61.067636a31.030303 31.030303 0 1 1 11.108848 61.067636l-341.333333 62.060606a31.030303 31.030303 0 0 1-11.108848 0l-341.333334-62.060606a31.030303 31.030303 0 0 1-24.979394-36.088242zM352.318061 358.710303a31.030303 31.030303 0 0 1 31.030303-31.030303h248.242424a31.030303 31.030303 0 1 1 0 62.060606h-248.242424a31.030303 31.030303 0 0 1-31.030303-31.030303zM401.966545 799.340606a31.030303 31.030303 0 0 1 6.206061 43.442424l-93.090909 124.121212a31.030303 31.030303 0 0 1-49.648485-37.236363l93.090909-124.121212a31.030303 31.030303 0 0 1 43.442424-6.206061zM612.972606 799.340606a31.030303 31.030303 0 0 1 43.442424 6.206061l93.090909 124.121212a31.030303 31.030303 0 0 1-49.648484 37.236363l-93.09091-124.121212a31.030303 31.030303 0 0 1 6.206061-43.442424z"  /></svg>