<?xml version="1.0" standalone="no"?><!DOCTYPE svg PUBLIC "-//W3C//DTD SVG 1.1//EN" "http://www.w3.org/Graphics/SVG/1.1/DTD/svg11.dtd"><svg class="icon" width="200px" height="200.00px" viewBox="0 0 1024 1024" version="1.1" xmlns="http://www.w3.org/2000/svg"><path fill="#333333" d="M213.333333 896a42.666667 42.666667 0 0 0 42.666667 42.666667h512a42.666667 42.666667 0 0 0 42.666667-42.666667V341.333333h85.333333V256h-213.333333V128a42.666667 42.666667 0 0 0-42.666667-42.666667H384a42.666667 42.666667 0 0 0-42.666667 42.666667v128H128v85.333333h85.333333v554.666667z m213.333334-725.333333h170.666666v85.333333h-170.666666V170.666667zM384 341.333333h341.333333v512H298.666667V341.333333h85.333333z"  /><path fill="#333333" d="M384 426.666667h85.333333v341.333333H384z m170.666667 0h85.333333v341.333333h-85.333333z"  /></svg>