<?xml version="1.0" standalone="no"?><!DOCTYPE svg PUBLIC "-//W3C//DTD SVG 1.1//EN" "http://www.w3.org/Graphics/SVG/1.1/DTD/svg11.dtd"><svg class="icon" width="200px" height="200.00px" viewBox="0 0 1024 1024" version="1.1" xmlns="http://www.w3.org/2000/svg"><path fill="#333333" d="M662.621091 327.68a31.030303 31.030303 0 0 1 31.030303-31.030303h165.174303a62.060606 62.060606 0 0 1 57.623273 39.005091l-28.827152 11.543273 28.827152-11.543273 54.240969 135.664485a31.030303 31.030303 0 0 1-28.796121 42.542545h-248.242424a31.030303 31.030303 0 0 1-31.030303-31.030303v-155.151515z m62.060606 31.030303v93.090909h171.380364l-37.236364-93.090909h-134.144zM42.01503 575.922424a31.030303 31.030303 0 0 1 31.030303-31.030303h620.606061a31.030303 31.030303 0 1 1 0 62.060606h-620.606061a31.030303 31.030303 0 0 1-31.030303-31.030303zM740.196848 700.043636a62.060606 62.060606 0 1 0 0 124.121212 62.060606 62.060606 0 0 0 0-124.121212z m-124.121212 62.060606a124.121212 124.121212 0 1 1 248.242425 0 124.121212 124.121212 0 0 1-248.242425 0zM274.742303 700.043636a62.060606 62.060606 0 1 0 0 124.121212 62.060606 62.060606 0 0 0 0-124.121212z m-124.121212 62.060606a124.121212 124.121212 0 1 1 248.242424 0 124.121212 124.121212 0 0 1-248.242424 0z"  /><path fill="#333333" d="M336.802909 762.104242a31.030303 31.030303 0 0 1 31.030303-31.030303h279.272727a31.030303 31.030303 0 1 1 0 62.060606h-279.272727a31.030303 31.030303 0 0 1-31.030303-31.030303z"  /><path fill="#333333" d="M60.198788 252.772848a62.060606 62.060606 0 0 1 43.876848-18.183757h589.575758a31.030303 31.030303 0 0 1 31.030303 31.030303v415.868121a31.030303 31.030303 0 1 1-62.060606 0V296.649697h-558.545455v434.424242h77.575758a31.030303 31.030303 0 1 1 0 62.060606h-77.575758a62.060606 62.060606 0 0 1-62.060606-62.060606v-434.424242a62.060606 62.060606 0 0 1 18.183758-43.876849z"  /><path fill="#333333" d="M662.621091 482.831515a31.030303 31.030303 0 0 1 31.030303-31.030303h248.242424a31.030303 31.030303 0 0 1 31.030303 31.030303v248.242424a62.060606 62.060606 0 0 1-62.060606 62.060606h-77.575757a31.030303 31.030303 0 0 1 0-62.060606h77.575757v-217.212121h-186.181818v167.625697a31.030303 31.030303 0 1 1-62.060606 0V482.831515z"  /></svg>