<?xml version="1.0" standalone="no"?><!DOCTYPE svg PUBLIC "-//W3C//DTD SVG 1.1//EN" "http://www.w3.org/Graphics/SVG/1.1/DTD/svg11.dtd"><svg class="icon" width="200px" height="200.00px" viewBox="0 0 1024 1024" version="1.1" xmlns="http://www.w3.org/2000/svg"><path fill="#333333" d="M128 725.333333h157.738667l245.248 163.498667a42.837333 42.837333 0 0 0 43.818666 2.133333A42.666667 42.666667 0 0 0 597.333333 853.333333V170.666667a42.666667 42.666667 0 0 0-66.304-35.498667L285.738667 298.666667H128a42.666667 42.666667 0 0 0-42.666667 42.666666v341.333334a42.666667 42.666667 0 0 0 42.666667 42.666666z m42.666667-341.333333h128c8.405333 0 16.682667-2.517333 23.68-7.168L512 250.368v523.264l-189.653333-126.464A42.922667 42.922667 0 0 0 298.666667 640H170.666667V384z m512 341.333333c52.266667-46.933333 85.333333-137.770667 85.333333-213.333333s-33.066667-166.4-85.333333-213.333333v426.666666z"  /></svg>